<svg width="197" height="31" viewBox="0 0 197 31" fill="none" xmlns="http://www.w3.org/2000/svg">
<path d="M110.167 24.1994C107.566 24.1994 105.264 23.8954 103.863 22.1732C102.963 21.0588 102.362 19.4379 102.362 16.9052C102.362 13.9673 102.763 12.1438 103.563 10.9281C104.564 9.30719 106.365 8.80066 108.866 8.69935C110.467 8.59804 112.068 8.69935 113.669 8.80066L115.57 3.53268C113.469 3.02615 111.268 2.92484 109.067 3.02615C104.964 3.22876 101.662 4.34314 99.5608 6.47059C97.4595 8.59804 96.2588 12.1438 96.2588 16.9052C96.2588 21.4641 97.3595 24.7059 99.4607 26.732C101.562 28.7582 104.964 29.6699 108.966 29.6699C110.868 29.6699 112.769 29.4673 114.67 29.2647V24.1994H110.167Z" fill="#213355"/>
<path d="M88.153 3.43142C82.6497 4.5458 80.6484 6.06541 80.6484 6.06541V29.4674H86.9523V9.71246C89.2537 9.10462 91.6551 9.00331 93.9565 9.20593L95.8577 3.2288C93.3561 2.82358 90.7546 2.92488 88.153 3.43142Z" fill="#213355"/>
<path d="M37.7231 2.9248C35.0215 3.02611 32.4199 3.73526 30.1185 5.05226C30.1185 5.05226 27.8171 2.9248 22.2137 2.9248C18.1112 2.9248 14.2089 4.54572 11.207 7.48363V29.366H17.6109V9.10454C18.9117 8.80062 20.3126 8.59801 21.6133 8.59801C25.0154 8.59801 26.5163 9.30716 26.5163 11.8398V29.2647H33.1203V9.40846C34.4211 9.10454 35.8219 8.90193 37.1227 8.90193C40.6249 8.90193 42.0257 9.50977 42.0257 12.1438V29.366H48.4296V13.1568C48.5297 5.55879 45.5278 2.9248 37.7231 2.9248Z" fill="#213355"/>
<path d="M156.795 2.9248C152.692 2.9248 148.79 4.54572 145.788 7.48363V29.366H151.892V9.10454C153.393 8.80062 154.794 8.59801 156.294 8.59801C159.697 8.59801 161.698 9.30716 161.698 11.8398V29.2647H167.801V11.5359C167.801 6.26794 164.499 2.9248 156.795 2.9248Z" fill="#213355"/>
<path d="M142.186 16.2973C142.186 20.7549 141.185 23.9967 139.284 26.2254C137.083 28.7581 133.481 29.7712 129.378 29.7712C125.276 29.7712 121.673 28.6568 119.472 26.2254C117.571 24.098 116.57 20.8562 116.57 16.2973C116.57 11.7385 117.571 8.598 119.472 6.36924C121.673 3.83656 125.276 2.82349 129.378 2.82349C133.481 2.82349 137.083 3.93787 139.284 6.36924C141.185 8.598 142.186 11.8398 142.186 16.2973ZM136.182 16.2973C136.182 8.6993 132.28 7.99015 129.378 7.99015C126.076 7.99015 122.574 8.6993 122.574 16.2973C122.574 23.8954 126.376 24.6045 129.378 24.6045C132.68 24.6045 136.182 23.8954 136.182 16.2973Z" fill="#213355"/>
<path d="M6.40396 7.48364V29.4673H0.200195V13.7647L6.40396 7.48364Z" fill="#213355"/>
<path d="M6.40388 1H0V7.48366H6.40388V1Z" fill="#FF5D21"/>
<path d="M76.4467 13.4607C76.4467 10.3202 75.9464 7.68622 74.2454 5.66008C72.044 3.1274 68.3418 2.72217 65.0398 2.72217C54.7336 2.72217 52.5322 7.48361 52.5322 16.4999C52.5322 26.1241 56.1344 29.6699 65.0398 29.6699C68.5419 29.6699 71.944 29.2647 75.3461 28.4542H75.4461V24.3006H62.9385C59.3364 24.3006 58.6359 22.4771 58.5359 19.4379H76.3467C76.2466 19.4379 76.4467 16.196 76.4467 13.4607ZM70.9434 14.4738H58.4358C58.5359 9.00321 59.3364 8.49668 64.9397 8.49668C69.3424 8.49668 70.4431 9.10452 70.7433 11.4346C70.9434 12.3464 71.0434 13.3594 70.9434 14.4738Z" fill="#213355"/>
</svg>
